<svg width="1249" height="162" viewBox="0 0 1249 162" fill="none" xmlns="http://www.w3.org/2000/svg">
<path d="M474.518 52.167V109.733C474.518 138.416 497.804 161.703 526.487 161.703H619.333V115.33H526.388C523.289 115.33 520.791 112.831 520.791 109.733V52.167C520.791 49.0688 523.289 46.5702 526.388 46.5702H619.333V0.297466H526.487C497.804 0.297466 474.518 23.5838 474.518 52.2669V52.167Z" fill="url(#paint0_linear_612_55)"/>
<path d="M157.205 46.5702H197.881C200.979 46.5702 203.478 49.0688 203.478 52.167V161.703H249.85V52.2669C249.85 49.1687 252.349 46.6702 255.447 46.6702H296.123V0.297466H157.105V46.6702L157.205 46.5702Z" fill="url(#paint1_linear_612_55)"/>
<path d="M411.355 0.297467H359.486C330.803 0.297467 307.516 23.5838 307.516 52.2669V161.802H353.889V109.833C353.889 106.735 356.388 104.236 359.486 104.236H411.355C414.453 104.236 416.952 106.735 416.952 109.833V161.802H463.325V52.167C463.325 23.4838 440.038 0.197525 411.355 0.197525V0.297467ZM411.355 57.8636H359.386C356.288 57.8636 353.789 55.3651 353.789 52.2669C353.789 49.1687 356.288 46.6702 359.386 46.6702H411.255C414.353 46.6702 416.852 49.1687 416.852 52.2669C416.852 55.3651 414.353 57.8636 411.255 57.8636H411.355Z" fill="url(#paint2_linear_612_55)"/>
<path d="M1.19653 52.167C1.19653 80.8501 24.4828 104.136 53.166 104.136H94.1419C97.24 104.136 99.7386 106.635 99.7386 109.733C99.7386 112.831 97.24 115.33 94.1419 115.33H1.19653V161.703H94.0419C122.725 161.703 146.011 138.416 146.011 109.733C146.011 81.05 122.725 57.7637 94.0419 57.7637H53.066C49.9678 57.7637 47.4693 55.2651 47.4693 52.167C47.4693 49.0688 49.9678 46.5702 53.066 46.5702H145.911V0.297466H53.166C24.3829 0.297466 1.19653 23.4838 1.19653 52.167Z" fill="url(#paint3_linear_612_55)"/>
<path d="M844.101 109.733V0.297466H797.828V109.833C797.828 138.516 821.114 161.802 849.797 161.802H913.56V115.43H849.797C846.699 115.43 844.201 112.931 844.201 109.833L844.101 109.733Z" fill="url(#paint4_linear_612_55)"/>
<path d="M976.723 0.297466C948.04 0.297466 924.753 23.5838 924.753 52.2669V109.833C924.753 138.516 948.04 161.802 976.723 161.802H1028.69C1057.38 161.802 1080.66 138.516 1080.66 109.833V52.2669C1080.66 23.5838 1057.38 0.297466 1028.69 0.297466H976.723ZM1034.19 109.733C1034.19 112.831 1031.69 115.33 1028.59 115.33H976.723C973.624 115.33 971.126 112.831 971.126 109.733V52.167C971.126 49.0688 973.624 46.5702 976.723 46.5702H1028.59C1031.69 46.5702 1034.19 49.0688 1034.19 52.167V109.733Z" fill="url(#paint5_linear_612_55)"/>
<path d="M751.155 53.2663L786.435 0.297466H734.065L697.187 55.465C696.188 57.0641 694.389 57.9635 692.49 57.9635H682.496C679.398 57.9635 676.899 55.3651 676.899 52.2669V0.297466H630.526V161.703H676.899V109.733C676.899 106.635 679.398 104.136 682.496 104.136H734.465C735.465 104.136 736.464 104.436 737.263 104.936L739.662 107.734C739.962 108.434 740.062 109.034 740.062 109.833V161.802H786.435V109.933C786.435 88.0459 772.942 69.3568 753.854 61.6614C750.456 60.3621 749.156 56.2645 751.155 53.2663Z" fill="url(#paint6_linear_612_55)"/>
<path d="M1212.38 53.2663L1247.66 0.297466H1195.29L1158.42 55.465C1157.32 57.0641 1155.62 57.9635 1153.72 57.9635H1143.72C1140.63 57.9635 1138.13 55.3651 1138.13 52.2669V0.297466H1091.76V161.703H1138.13V109.733C1138.13 106.635 1140.63 104.136 1143.72 104.136H1195.69C1196.69 104.136 1197.69 104.436 1198.49 104.936L1200.89 107.734C1201.19 108.434 1201.29 109.034 1201.29 109.833V161.802H1247.66V109.933C1247.66 88.0459 1234.17 69.3568 1215.08 61.6614C1211.68 60.3621 1210.39 56.2645 1212.38 53.2663Z" fill="url(#paint7_linear_612_55)"/>
<defs>
<linearGradient id="paint0_linear_612_55" x1="1.00001" y1="-3.21446e-06" x2="140.718" y2="482.582" gradientUnits="userSpaceOnUse">
<stop stop-color="#5750FF"/>
<stop offset="0.25" stop-color="#6313BD"/>
<stop offset="0.75" stop-color="#EE8E6A"/>
<stop offset="1" stop-color="#EDD9A3"/>
</linearGradient>
<linearGradient id="paint1_linear_612_55" x1="1.00001" y1="-3.21446e-06" x2="140.718" y2="482.582" gradientUnits="userSpaceOnUse">
<stop stop-color="#5750FF"/>
<stop offset="0.25" stop-color="#6313BD"/>
<stop offset="0.75" stop-color="#EE8E6A"/>
<stop offset="1" stop-color="#EDD9A3"/>
</linearGradient>
<linearGradient id="paint2_linear_612_55" x1="1.00001" y1="-3.21446e-06" x2="140.718" y2="482.582" gradientUnits="userSpaceOnUse">
<stop stop-color="#5750FF"/>
<stop offset="0.25" stop-color="#6313BD"/>
<stop offset="0.75" stop-color="#EE8E6A"/>
<stop offset="1" stop-color="#EDD9A3"/>
</linearGradient>
<linearGradient id="paint3_linear_612_55" x1="1.00001" y1="-3.21446e-06" x2="140.718" y2="482.582" gradientUnits="userSpaceOnUse">
<stop stop-color="#5750FF"/>
<stop offset="0.25" stop-color="#6313BD"/>
<stop offset="0.75" stop-color="#EE8E6A"/>
<stop offset="1" stop-color="#EDD9A3"/>
</linearGradient>
<linearGradient id="paint4_linear_612_55" x1="1.00001" y1="-3.21446e-06" x2="140.718" y2="482.582" gradientUnits="userSpaceOnUse">
<stop stop-color="#5750FF"/>
<stop offset="0.25" stop-color="#6313BD"/>
<stop offset="0.75" stop-color="#EE8E6A"/>
<stop offset="1" stop-color="#EDD9A3"/>
</linearGradient>
<linearGradient id="paint5_linear_612_55" x1="1.00001" y1="-3.21446e-06" x2="140.718" y2="482.582" gradientUnits="userSpaceOnUse">
<stop stop-color="#5750FF"/>
<stop offset="0.25" stop-color="#6313BD"/>
<stop offset="0.75" stop-color="#EE8E6A"/>
<stop offset="1" stop-color="#EDD9A3"/>
</linearGradient>
<linearGradient id="paint6_linear_612_55" x1="1.00001" y1="-3.21446e-06" x2="140.718" y2="482.582" gradientUnits="userSpaceOnUse">
<stop stop-color="#5750FF"/>
<stop offset="0.25" stop-color="#6313BD"/>
<stop offset="0.75" stop-color="#EE8E6A"/>
<stop offset="1" stop-color="#EDD9A3"/>
</linearGradient>
<linearGradient id="paint7_linear_612_55" x1="1.00001" y1="-3.21446e-06" x2="140.718" y2="482.582" gradientUnits="userSpaceOnUse">
<stop stop-color="#5750FF"/>
<stop offset="0.25" stop-color="#6313BD"/>
<stop offset="0.75" stop-color="#EE8E6A"/>
<stop offset="1" stop-color="#EDD9A3"/>
</linearGradient>
</defs>
</svg>
