<svg width="1249" height="162" viewBox="0 0 1249 162" fill="none" xmlns="http://www.w3.org/2000/svg">
<path d="M474.768 52.217V109.783C474.768 138.466 498.054 161.753 526.738 161.753H619.583V115.38H526.638C523.539 115.38 521.041 112.881 521.041 109.783V52.217C521.041 49.1188 523.539 46.6202 526.638 46.6202H619.583V0.347469H526.738C498.054 0.347469 474.768 23.6338 474.768 52.3169V52.217Z" fill="white"/>
<path d="M157.455 46.6202H198.131C201.229 46.6202 203.728 49.1188 203.728 52.217V161.753H250.1V52.3169C250.1 49.2187 252.599 46.7202 255.697 46.7202H296.373V0.347469H157.355V46.7202L157.455 46.6202Z" fill="white"/>
<path d="M411.605 0.34747H359.736C331.053 0.34747 307.766 23.6338 307.766 52.3169V161.852H354.139V109.883C354.139 106.785 356.638 104.286 359.736 104.286H411.605C414.704 104.286 417.202 106.785 417.202 109.883V161.852H463.575V52.217C463.575 23.5338 440.289 0.247528 411.605 0.247528V0.34747ZM411.605 57.9136H359.636C356.538 57.9136 354.039 55.4151 354.039 52.3169C354.039 49.2187 356.538 46.7202 359.636 46.7202H411.505C414.604 46.7202 417.102 49.2187 417.102 52.3169C417.102 55.4151 414.604 57.9136 411.505 57.9136H411.605Z" fill="white"/>
<path d="M1.44666 52.217C1.44666 80.9001 24.733 104.186 53.4161 104.186H94.392C97.4902 104.186 99.9887 106.685 99.9887 109.783C99.9887 112.881 97.4902 115.38 94.392 115.38H1.44666V161.753H94.292C122.975 161.753 146.261 138.466 146.261 109.783C146.261 81.1 122.975 57.8137 94.292 57.8137H53.3161C50.218 57.8137 47.7194 55.3151 47.7194 52.217C47.7194 49.1188 50.218 46.6202 53.3161 46.6202H146.162V0.347469H53.4161C24.633 0.347469 1.44666 23.5338 1.44666 52.217Z" fill="white"/>
<path d="M844.351 109.783V0.347469H798.078V109.883C798.078 138.566 821.364 161.852 850.047 161.852H913.81V115.48H850.047C846.949 115.48 844.451 112.981 844.451 109.883L844.351 109.783Z" fill="white"/>
<path d="M976.973 0.347469C948.29 0.347469 925.003 23.6338 925.003 52.3169V109.883C925.003 138.566 948.29 161.852 976.973 161.852H1028.94C1057.63 161.852 1080.91 138.566 1080.91 109.883V52.3169C1080.91 23.6338 1057.63 0.347469 1028.94 0.347469H976.973ZM1034.44 109.783C1034.44 112.881 1031.94 115.38 1028.84 115.38H976.973C973.875 115.38 971.376 112.881 971.376 109.783V52.217C971.376 49.1188 973.875 46.6203 976.973 46.6203H1028.84C1031.94 46.6203 1034.44 49.1188 1034.44 52.217V109.783Z" fill="white"/>
<path d="M751.405 53.3163L786.685 0.347469H734.315L697.437 55.515C696.438 57.1141 694.639 58.0135 692.74 58.0135H682.746C679.648 58.0135 677.149 55.4151 677.149 52.3169V0.347469H630.776V161.753H677.149V109.783C677.149 106.685 679.648 104.186 682.746 104.186H734.715C735.715 104.186 736.714 104.486 737.514 104.986L739.912 107.784C740.212 108.484 740.312 109.084 740.312 109.883V161.852H786.685V109.983C786.685 88.0959 773.193 69.4068 754.104 61.7114C750.706 60.4121 749.407 56.3145 751.405 53.3163Z" fill="white"/>
<path d="M1212.63 53.3163L1247.91 0.347469H1195.54L1158.67 55.515C1157.57 57.1141 1155.87 58.0135 1153.97 58.0135H1143.97C1140.88 58.0135 1138.38 55.4151 1138.38 52.3169V0.347469H1092.01V161.753H1138.38V109.783C1138.38 106.685 1140.88 104.186 1143.97 104.186H1195.94C1196.94 104.186 1197.94 104.486 1198.74 104.986L1201.14 107.784C1201.44 108.484 1201.54 109.084 1201.54 109.883V161.852H1247.91V109.983C1247.91 88.0959 1234.42 69.4068 1215.33 61.7114C1211.93 60.4121 1210.64 56.3145 1212.63 53.3163Z" fill="white"/>
</svg>
