<svg width="1132" height="162" viewBox="0 0 1132 162" fill="none" xmlns="http://www.w3.org/2000/svg">
<g clip-path="url(#clip0_612_65)">
<path d="M823.889 0.944336H777.68V161.95H823.889V0.944336Z" fill="white"/>
<path d="M720.236 0.944336V52.7707C720.236 55.8513 717.699 58.3883 714.618 58.3883H662.883C659.802 58.3883 657.265 55.8513 657.265 52.7707V0.944336H611.056V161.95H657.265V110.124C657.265 107.043 659.802 104.507 662.883 104.507H714.618C717.699 104.507 720.236 107.043 720.236 110.124V161.95H766.445V0.944336H720.236Z" fill="white"/>
<path d="M1.46191 47.1532H42.0532C45.1338 47.1532 47.6708 49.6901 47.6708 52.7707V161.95H93.8796V52.7707C93.8796 49.6901 96.4166 47.1532 99.4972 47.1532H140.088V0.944336H1.46191V47.1532Z" fill="white"/>
<path d="M530.599 110.124V0.944336H484.48V110.124C484.48 138.755 507.675 161.95 536.307 161.95H599.912V115.742H536.307C533.226 115.742 530.689 113.205 530.689 110.124H530.599Z" fill="white"/>
<path d="M254.795 0.944336H203.059C174.428 0.944336 151.233 24.1394 151.233 52.7707V110.124C151.233 138.755 174.428 161.95 203.059 161.95H254.795C283.426 161.95 306.622 138.755 306.622 110.124V52.7707C306.622 24.1394 283.426 0.944336 254.795 0.944336ZM260.413 110.124C260.413 113.205 257.876 115.742 254.795 115.742H203.059C199.979 115.742 197.442 113.205 197.442 110.124V52.7707C197.442 49.6901 199.979 47.1532 203.059 47.1532H254.795C257.876 47.1532 260.413 49.6901 260.413 52.7707V110.124Z" fill="white"/>
<path d="M421.419 0.944336H369.683C341.052 0.944336 317.857 24.1394 317.857 52.7707V110.124C317.857 138.755 341.052 161.95 369.683 161.95H421.419C450.05 161.95 473.245 138.755 473.245 110.124V52.7707C473.245 24.1394 450.05 0.944336 421.419 0.944336ZM427.036 110.124C427.036 113.205 424.499 115.742 421.419 115.742H369.683C366.602 115.742 364.065 113.205 364.065 110.124V52.7707C364.065 49.6901 366.602 47.1532 369.683 47.1532H421.419C424.499 47.1532 427.036 49.6901 427.036 52.7707V110.124Z" fill="white"/>
<path d="M1038.9 47.1532H1131.59V0.944336H1038.99C1010.36 0.944336 987.16 24.1394 987.16 52.7707V110.124C987.16 138.755 1010.36 161.95 1038.99 161.95H1131.59V115.742H1038.9C1035.82 115.742 1033.28 113.205 1033.28 110.124C1033.28 107.043 1035.82 104.507 1038.9 104.507H1120.35V58.2977H1038.9C1035.82 58.2977 1033.28 55.7607 1033.28 52.6801C1033.28 49.5995 1035.82 47.0626 1038.9 47.0626V47.1532Z" fill="white"/>
<path d="M940.951 0.944336L917.666 111.302C917.122 113.93 914.857 115.742 912.139 115.742H910.145C907.518 115.742 905.162 113.839 904.618 111.302L881.333 0.944336H835.124L860.403 120.816C865.477 144.735 886.588 161.95 911.051 161.95C935.515 161.95 956.717 144.826 961.7 120.816L986.979 0.944336H940.77H940.951Z" fill="white"/>
</g>
<defs>
<clipPath id="clip0_612_65">
<rect width="1131.02" height="162" fill="white" transform="translate(0.666748)"/>
</clipPath>
</defs>
</svg>
