<svg width="1132" height="162" viewBox="0 0 1132 162" fill="none" xmlns="http://www.w3.org/2000/svg">
<g clip-path="url(#clip0_612_62)">
<path d="M823.556 0.944336H777.347V161.95H823.556V0.944336Z" fill="url(#paint0_linear_612_62)"/>
<path d="M719.903 0.944336V52.7707C719.903 55.8513 717.366 58.3883 714.285 58.3883H662.55C659.469 58.3883 656.932 55.8513 656.932 52.7707V0.944336H610.723V161.95H656.932V110.124C656.932 107.043 659.469 104.507 662.55 104.507H714.285C717.366 104.507 719.903 107.043 719.903 110.124V161.95H766.112V0.944336H719.903Z" fill="url(#paint1_linear_612_62)"/>
<path d="M1.12891 47.1532H41.7202C44.8008 47.1532 47.3378 49.6901 47.3378 52.7707V161.95H93.5466V52.7707C93.5466 49.6901 96.0836 47.1532 99.1642 47.1532H139.755V0.944336H1.12891V47.1532Z" fill="url(#paint2_linear_612_62)"/>
<path d="M530.266 110.124V0.944336H484.147V110.124C484.147 138.755 507.342 161.95 535.974 161.95H599.579V115.742H535.974C532.893 115.742 530.356 113.205 530.356 110.124H530.266Z" fill="url(#paint3_linear_612_62)"/>
<path d="M254.462 0.944336H202.726C174.095 0.944336 150.9 24.1394 150.9 52.7707V110.124C150.9 138.755 174.095 161.95 202.726 161.95H254.462C283.093 161.95 306.289 138.755 306.289 110.124V52.7707C306.289 24.1394 283.093 0.944336 254.462 0.944336ZM260.08 110.124C260.08 113.205 257.543 115.742 254.462 115.742H202.726C199.646 115.742 197.109 113.205 197.109 110.124V52.7707C197.109 49.6901 199.646 47.1532 202.726 47.1532H254.462C257.543 47.1532 260.08 49.6901 260.08 52.7707V110.124Z" fill="url(#paint4_linear_612_62)"/>
<path d="M421.086 0.944336H369.35C340.719 0.944336 317.524 24.1394 317.524 52.7707V110.124C317.524 138.755 340.719 161.95 369.35 161.95H421.086C449.717 161.95 472.912 138.755 472.912 110.124V52.7707C472.912 24.1394 449.717 0.944336 421.086 0.944336ZM426.703 110.124C426.703 113.205 424.166 115.742 421.086 115.742H369.35C366.269 115.742 363.732 113.205 363.732 110.124V52.7707C363.732 49.6901 366.269 47.1532 369.35 47.1532H421.086C424.166 47.1532 426.703 49.6901 426.703 52.7707V110.124Z" fill="url(#paint5_linear_612_62)"/>
<path d="M1038.56 47.1532H1131.25V0.944336H1038.65C1010.02 0.944336 986.827 24.1394 986.827 52.7707V110.124C986.827 138.755 1010.02 161.95 1038.65 161.95H1131.25V115.742H1038.56C1035.48 115.742 1032.95 113.205 1032.95 110.124C1032.95 107.043 1035.48 104.507 1038.56 104.507H1120.02V58.2977H1038.56C1035.48 58.2977 1032.95 55.7607 1032.95 52.6801C1032.95 49.5995 1035.48 47.0626 1038.56 47.0626V47.1532Z" fill="url(#paint6_linear_612_62)"/>
<path d="M940.618 0.944336L917.333 111.302C916.789 113.93 914.524 115.742 911.806 115.742H909.812C907.185 115.742 904.829 113.839 904.285 111.302L881 0.944336H834.791L860.07 120.816C865.144 144.735 886.255 161.95 910.718 161.95C935.182 161.95 956.384 144.826 961.367 120.816L986.646 0.944336H940.437H940.618Z" fill="url(#paint7_linear_612_62)"/>
</g>
<defs>
<linearGradient id="paint0_linear_612_62" x1="0.950727" y1="0.74754" x2="151.497" y2="473.948" gradientUnits="userSpaceOnUse">
<stop stop-color="#5750FF"/>
<stop offset="0.25" stop-color="#6313BD"/>
<stop offset="0.75" stop-color="#EE8E6A"/>
<stop offset="1" stop-color="#EDD9A3"/>
</linearGradient>
<linearGradient id="paint1_linear_612_62" x1="0.950727" y1="0.74754" x2="151.497" y2="473.948" gradientUnits="userSpaceOnUse">
<stop stop-color="#5750FF"/>
<stop offset="0.25" stop-color="#6313BD"/>
<stop offset="0.75" stop-color="#EE8E6A"/>
<stop offset="1" stop-color="#EDD9A3"/>
</linearGradient>
<linearGradient id="paint2_linear_612_62" x1="0.950727" y1="0.74754" x2="151.497" y2="473.948" gradientUnits="userSpaceOnUse">
<stop stop-color="#5750FF"/>
<stop offset="0.25" stop-color="#6313BD"/>
<stop offset="0.75" stop-color="#EE8E6A"/>
<stop offset="1" stop-color="#EDD9A3"/>
</linearGradient>
<linearGradient id="paint3_linear_612_62" x1="0.950727" y1="0.74754" x2="151.497" y2="473.948" gradientUnits="userSpaceOnUse">
<stop stop-color="#5750FF"/>
<stop offset="0.25" stop-color="#6313BD"/>
<stop offset="0.75" stop-color="#EE8E6A"/>
<stop offset="1" stop-color="#EDD9A3"/>
</linearGradient>
<linearGradient id="paint4_linear_612_62" x1="0.950727" y1="0.74754" x2="151.497" y2="473.948" gradientUnits="userSpaceOnUse">
<stop stop-color="#5750FF"/>
<stop offset="0.25" stop-color="#6313BD"/>
<stop offset="0.75" stop-color="#EE8E6A"/>
<stop offset="1" stop-color="#EDD9A3"/>
</linearGradient>
<linearGradient id="paint5_linear_612_62" x1="0.950727" y1="0.74754" x2="151.497" y2="473.948" gradientUnits="userSpaceOnUse">
<stop stop-color="#5750FF"/>
<stop offset="0.25" stop-color="#6313BD"/>
<stop offset="0.75" stop-color="#EE8E6A"/>
<stop offset="1" stop-color="#EDD9A3"/>
</linearGradient>
<linearGradient id="paint6_linear_612_62" x1="0.950727" y1="0.74754" x2="151.497" y2="473.948" gradientUnits="userSpaceOnUse">
<stop stop-color="#5750FF"/>
<stop offset="0.25" stop-color="#6313BD"/>
<stop offset="0.75" stop-color="#EE8E6A"/>
<stop offset="1" stop-color="#EDD9A3"/>
</linearGradient>
<linearGradient id="paint7_linear_612_62" x1="0.950727" y1="0.74754" x2="151.497" y2="473.948" gradientUnits="userSpaceOnUse">
<stop stop-color="#5750FF"/>
<stop offset="0.25" stop-color="#6313BD"/>
<stop offset="0.75" stop-color="#EE8E6A"/>
<stop offset="1" stop-color="#EDD9A3"/>
</linearGradient>
<clipPath id="clip0_612_62">
<rect width="1131.02" height="162" fill="white" transform="translate(0.333496)"/>
</clipPath>
</defs>
</svg>
