<svg width="1247" height="162" viewBox="0 0 1247 162" fill="none" xmlns="http://www.w3.org/2000/svg">
<g clip-path="url(#clip0_612_60)">
<path d="M473.388 52.217V109.783C473.388 138.466 496.674 161.753 525.358 161.753H618.203V115.38H525.258C522.159 115.38 519.661 112.881 519.661 109.783V52.217C519.661 49.1188 522.159 46.6202 525.258 46.6202H618.203V0.347469H525.358C496.674 0.347469 473.388 23.6338 473.388 52.3169V52.217Z" fill="black"/>
<path d="M156.075 46.6202H196.751C199.849 46.6202 202.348 49.1188 202.348 52.217V161.753H248.72V52.3169C248.72 49.2187 251.219 46.7202 254.317 46.7202H294.993V0.347469H155.975V46.7202L156.075 46.6202Z" fill="black"/>
<path d="M410.225 0.34747H358.356C329.673 0.34747 306.386 23.6338 306.386 52.3169V161.852H352.759V109.883C352.759 106.785 355.258 104.286 358.356 104.286H410.225C413.324 104.286 415.822 106.785 415.822 109.883V161.852H462.195V52.217C462.195 23.5338 438.908 0.247528 410.225 0.247528V0.34747ZM410.225 57.9136H358.256C355.158 57.9136 352.659 55.4151 352.659 52.3169C352.659 49.2187 355.158 46.7202 358.256 46.7202H410.125C413.224 46.7202 415.722 49.2187 415.722 52.3169C415.722 55.4151 413.224 57.9136 410.125 57.9136H410.225Z" fill="black"/>
<path d="M0.0666299 52.217C0.0666299 80.9001 23.3529 104.186 52.0361 104.186H93.012C96.1101 104.186 98.6087 106.685 98.6087 109.783C98.6087 112.881 96.1101 115.38 93.012 115.38H0.0666299V161.753H92.912C121.595 161.753 144.881 138.466 144.881 109.783C144.881 81.1 121.595 57.8137 92.912 57.8137H51.9361C48.8379 57.8137 46.3394 55.3151 46.3394 52.217C46.3394 49.1188 48.8379 46.6202 51.9361 46.6202H144.782V0.347469H52.0361C23.253 0.347469 0.0666299 23.5338 0.0666299 52.217Z" fill="black"/>
<path d="M842.971 109.783V0.347469H796.698V109.883C796.698 138.566 819.984 161.852 848.667 161.852H912.43V115.48H848.667C845.569 115.48 843.071 112.981 843.071 109.883L842.971 109.783Z" fill="black"/>
<path d="M975.593 0.347469C946.91 0.347469 923.623 23.6338 923.623 52.3169V109.883C923.623 138.566 946.91 161.852 975.593 161.852H1027.56C1056.25 161.852 1079.53 138.566 1079.53 109.883V52.3169C1079.53 23.6338 1056.25 0.347469 1027.56 0.347469H975.593ZM1033.06 109.783C1033.06 112.881 1030.56 115.38 1027.46 115.38H975.593C972.495 115.38 969.996 112.881 969.996 109.783V52.217C969.996 49.1188 972.495 46.6203 975.593 46.6203H1027.46C1030.56 46.6203 1033.06 49.1188 1033.06 52.217V109.783Z" fill="black"/>
<path d="M750.025 53.3163L785.305 0.347469H732.935L696.057 55.515C695.058 57.1141 693.259 58.0135 691.36 58.0135H681.366C678.268 58.0135 675.769 55.4151 675.769 52.3169V0.347469H629.396V161.753H675.769V109.783C675.769 106.685 678.268 104.186 681.366 104.186H733.335C734.335 104.186 735.334 104.486 736.134 104.986L738.532 107.784C738.832 108.484 738.932 109.084 738.932 109.883V161.852H785.305V109.983C785.305 88.0959 771.813 69.4068 752.724 61.7114C749.326 60.4121 748.027 56.3145 750.025 53.3163Z" fill="black"/>
<path d="M1211.25 53.3163L1246.53 0.347469H1194.16L1157.29 55.515C1156.19 57.1141 1154.49 58.0135 1152.59 58.0135H1142.59C1139.5 58.0135 1137 55.4151 1137 52.3169V0.347469H1090.63V161.753H1137V109.783C1137 106.685 1139.5 104.186 1142.59 104.186H1194.56C1195.56 104.186 1196.56 104.486 1197.36 104.986L1199.76 107.784C1200.06 108.484 1200.16 109.084 1200.16 109.883V161.852H1246.53V109.983C1246.53 88.0959 1233.04 69.4068 1213.95 61.7114C1210.55 60.4121 1209.26 56.3145 1211.25 53.3163Z" fill="black"/>
</g>
<defs>
<clipPath id="clip0_612_60">
<rect width="1247" height="162" fill="white"/>
</clipPath>
</defs>
</svg>
