<svg width="1132" height="162" viewBox="0 0 1132 162" fill="none" xmlns="http://www.w3.org/2000/svg">
<path d="M823.222 0.944336H777.013V161.95H823.222V0.944336Z" fill="black"/>
<path d="M719.569 0.944336V52.7707C719.569 55.8513 717.032 58.3883 713.952 58.3883H662.216C659.135 58.3883 656.599 55.8513 656.599 52.7707V0.944336H610.39V161.95H656.599V110.124C656.599 107.043 659.135 104.507 662.216 104.507H713.952C717.032 104.507 719.569 107.043 719.569 110.124V161.95H765.778V0.944336H719.569Z" fill="black"/>
<path d="M0.795281 47.1532H41.3866C44.4672 47.1532 47.0041 49.6901 47.0041 52.7707V161.95H93.213V52.7707C93.213 49.6901 95.7499 47.1532 98.8305 47.1532H139.422V0.944336H0.795281V47.1532Z" fill="black"/>
<path d="M529.932 110.124V0.944336H483.814V110.124C483.814 138.755 507.009 161.95 535.64 161.95H599.245V115.742H535.64C532.559 115.742 530.023 113.205 530.023 110.124H529.932Z" fill="black"/>
<path d="M254.128 0.944336H202.393C173.761 0.944336 150.566 24.1394 150.566 52.7707V110.124C150.566 138.755 173.761 161.95 202.393 161.95H254.128C282.76 161.95 305.955 138.755 305.955 110.124V52.7707C305.955 24.1394 282.76 0.944336 254.128 0.944336ZM259.746 110.124C259.746 113.205 257.209 115.742 254.128 115.742H202.393C199.312 115.742 196.775 113.205 196.775 110.124V52.7707C196.775 49.6901 199.312 47.1532 202.393 47.1532H254.128C257.209 47.1532 259.746 49.6901 259.746 52.7707V110.124Z" fill="black"/>
<path d="M420.752 0.944336H369.016C340.385 0.944336 317.19 24.1394 317.19 52.7707V110.124C317.19 138.755 340.385 161.95 369.016 161.95H420.752C449.384 161.95 472.579 138.755 472.579 110.124V52.7707C472.579 24.1394 449.384 0.944336 420.752 0.944336ZM426.37 110.124C426.37 113.205 423.833 115.742 420.752 115.742H369.016C365.936 115.742 363.399 113.205 363.399 110.124V52.7707C363.399 49.6901 365.936 47.1532 369.016 47.1532H420.752C423.833 47.1532 426.37 49.6901 426.37 52.7707V110.124Z" fill="black"/>
<path d="M1038.23 47.1532H1130.92V0.944336H1038.32C1009.69 0.944336 986.493 24.1394 986.493 52.7707V110.124C986.493 138.755 1009.69 161.95 1038.32 161.95H1130.92V115.742H1038.23C1035.15 115.742 1032.61 113.205 1032.61 110.124C1032.61 107.043 1035.15 104.507 1038.23 104.507H1119.68V58.2977H1038.23C1035.15 58.2977 1032.61 55.7607 1032.61 52.6801C1032.61 49.5995 1035.15 47.0626 1038.23 47.0626V47.1532Z" fill="black"/>
<path d="M940.285 0.944336L916.999 111.302C916.455 113.93 914.19 115.742 911.472 115.742H909.479C906.851 115.742 904.495 113.839 903.952 111.302L880.666 0.944336H834.457L859.736 120.816C864.81 144.735 885.921 161.95 910.385 161.95C934.848 161.95 956.05 144.826 961.033 120.816L986.312 0.944336H940.103H940.285Z" fill="black"/>
</svg>
